<svg xmlns="http://www.w3.org/2000/svg" viewBox="0 0 100 100" id="team"><path fill="#a0b1ff" d="M2 2h96v96H2z" class="colore64b3f svgShape"></path><path fill="#2a2a2a" d="M98 70.275 68.293 40.577a5.07 5.07 0 0 0-3.61-1.51c-1.36 0-2.59.54-3.5 1.41l-4.87-4.86a8.232 8.232 0 0 0-6.31-2.94c-4.57 0-8.28 3.71-8.28 8.27 0 .94.17 1.93.47 2.89l-3.23-3.23.13.16a5.028 5.028 0 0 0-3.78-1.7c-2.81 0-5.09 2.29-5.09 5.1 0 1.33.53 2.81 1.41 3.94.02.02.04.05.06.07.15.2.32.39.5.56l3.37 3.37c-.08 0-.16.02-.25.02-1.16 0-2.28-.34-3.32-1.01-.27-.17-.5-.36-.74-.56l-1.06-1.06c-3.1 1.78-5.19 5.12-5.19 8.94 0 .28.11.53.29.71l7.14 7.14v.04c0 .29.13.54.32.72h-.01L63.687 98H98V70.275z" class="color973732 svgShape"></path><path fill="#eff7f7" d="M44.175 47.615c.65.82 1.4 1.51 2.24 2.05 1.09.7 2.22 1.07 3.36 1.11.08 0 .15.01.23.01.1 0 .18 0 .28-.01 4.5-.21 7.98-5.44 7.98-9.83 0-4.56-3.7-8.27-8.26-8.27-4.57 0-8.28 3.71-8.28 8.27 0 2.22.88 4.66 2.34 6.54.04.05.07.09.11.13zM61.055 48.165c.4.52.86.94 1.38 1.27.71.46 1.47.69 2.25.69 2.86 0 5.09-3.2 5.09-5.96 0-2.81-2.29-5.1-5.09-5.1-2.81 0-5.1 2.29-5.1 5.1 0 1.33.53 2.81 1.42 3.94.01.02.03.04.05.06zM31.695 48.175c.39.51.86.93 1.37 1.26.72.46 1.48.69 2.25.69 2.87 0 5.09-3.2 5.09-5.96 0-2.81-2.28-5.1-5.09-5.1s-5.09 2.29-5.09 5.1c0 1.33.53 2.81 1.41 3.94.02.02.04.05.06.07zM69.798 49.493c-1.268 1.552-3.058 2.632-5.112 2.632-.51 0-1.008-.077-1.495-.203a19.457 19.457 0 0 1 5.098 7.518H74a1 1 0 0 0 1-1c0-3.827-2.1-7.166-5.202-8.947zM36.851 51.916a5.824 5.824 0 0 1-1.536.209c-1.165 0-2.284-.338-3.327-1.004a7.485 7.485 0 0 1-1.792-1.624C27.096 51.28 25 54.617 25 58.44a1 1 0 0 0 1 1h5.727a19.866 19.866 0 0 1 5.124-7.524z" class="colorffffff svgShape"></path><path fill="#eff7f7" d="M56.342 49.986c-1.623 1.586-3.651 2.665-5.918 2.784a4.512 4.512 0 0 1-.663.006c-1.565-.056-3.034-.535-4.426-1.429a10.905 10.905 0 0 1-1.694-1.359c-6.54 2.56-11.206 8.928-11.206 16.337 0 .56.45 1 1 1h33.14a.997.997 0 0 0 .98-1.2c-.092-7.315-4.734-13.6-11.213-16.139z" class="colorffffff svgShape"></path></svg>